# xmcd
#
# Track frame offsets: 
#        150
#        21844
#        43849
#        63530
#        84320
#        104302
#        129498
#        146751
#        165280
#        181948
#        204286
#        228056
#        249875
#
# Disc length: 3625 seconds
#
# Revision: 0
# Processed by: cddbd v1.5.2PL0 Copyright (c) Steve Scherf et al.
# Submitted via: ExactAudioCopy v1.3
#
DISCID=9f0e270d
DTITLE=Denise LaSalle - Denise LaSalle At Her Best
DYEAR=2012
DGENRE=Blues
TTITLE0=Snap, Crackle and Pop
TTITLE1=Bone Me Like You Own Me
TTITLE2=You Shoulda Kept It In The Bedroom
TTITLE3=It's Goin' Down
TTITLE4=Wanted Man
TTITLE5=I'm Still The Queen
TTITLE6=Mississippi Woman
TTITLE7=It Was A House Until You Made It A Home
TTITLE8=Pay Before You Pump
TTITLE9=They Made A Boues Fan Out Of Me
TTITLE10=Dirty Freaky Man
TTITLE11=24 Hours
TTITLE12=I'm Still The Queen (Blues Mmix)
EXTD=
EXTT0=
EXTT1=
EXTT2=
EXTT3=
EXTT4=
EXTT5=
EXTT6=
EXTT7=
EXTT8=
EXTT9=
EXTT10=
EXTT11=
EXTT12=
PLAYORDER=
